<svg width="24" height="24" viewBox="0 0 24 24" fill="none" xmlns="http://www.w3.org/2000/svg">
<path d="M21 0H3C1.34315 0 0 1.34315 0 3V21C0 22.6569 1.34315 24 3 24H21C22.6569 24 24 22.6569 24 21V3C24 1.34315 22.6569 0 21 0Z" fill="#0068FF"/>
<path fill-rule="evenodd" clip-rule="evenodd" d="M6.31513 21V17.7943C4.29198 16.2663 3 13.9394 3 11.3333C3 6.73094 7.02943 3 12 3C16.9709 3 21 6.73094 21 11.3333C21 15.9354 16.9709 19.6667 12 19.6667C11.0727 19.6667 10.1777 19.5367 9.33568 19.2959L6.31513 21ZM6.1853 14.1507L11.039 9.05086L13.3685 11.4139L17.7367 9.05086L12.9105 14.1507L10.6025 11.7456L6.1853 14.1507Z" fill="white"/>
</svg>
