<svg width="24" height="24" viewBox="0 0 24 24" fill="none" xmlns="http://www.w3.org/2000/svg">
<path d="M21 0H3C1.34315 0 0 1.34315 0 3V21C0 22.6569 1.34315 24 3 24H21C22.6569 24 24 22.6569 24 21V3C24 1.34315 22.6569 0 21 0Z" fill="#7B519D"/>
<path fill-rule="evenodd" clip-rule="evenodd" d="M19.6157 16.0255C19.0559 15.5836 18.4575 15.187 17.8686 14.7818C16.694 13.973 15.6197 13.9102 14.7432 15.2114C14.251 15.9419 13.562 15.9739 12.8416 15.6534C10.8554 14.7706 9.32175 13.4102 8.42338 11.4311C8.026 10.5555 8.0312 9.77042 8.96104 9.15114C9.4533 8.82366 9.94929 8.4361 9.90962 7.72047C9.85781 6.78737 7.54688 3.669 6.6343 3.33988C6.25666 3.20366 5.88062 3.21249 5.49644 3.3391C3.35652 4.0446 2.47022 5.76994 3.31905 7.81283C5.85135 13.9077 10.3079 18.1508 16.4424 20.7405C16.7922 20.888 17.1807 20.9469 17.3775 20.9998C18.7741 21.0136 20.4102 19.6944 20.8828 18.3852C21.3377 17.1256 20.3762 16.6256 19.6157 16.0255Z" fill="white"/>
<path fill-rule="evenodd" clip-rule="evenodd" d="M12.737 3.96468C17.2218 4.64084 19.2901 6.73153 19.8612 11.16C19.9142 11.5691 19.7587 12.1846 20.354 12.1959C20.9762 12.2076 20.8263 11.6012 20.8315 11.1917C20.8841 7.02091 17.1746 3.1544 12.8666 3.01183C12.5416 3.05765 11.869 2.79207 11.8271 3.50627C11.7992 3.98782 12.3654 3.90867 12.737 3.96468Z" fill="white"/>
<path fill-rule="evenodd" clip-rule="evenodd" d="M13.6144 5.17895C13.183 5.12803 12.6136 4.92873 12.5128 5.51559C12.4075 6.13147 13.0422 6.06891 13.4501 6.1584C16.22 6.76532 17.1844 7.75372 17.6405 10.4474C17.7071 10.8401 17.5748 11.4514 18.2555 11.35C18.76 11.2747 18.5778 10.7508 18.62 10.4447C18.6423 7.85864 16.3819 5.50474 13.6144 5.17895Z" fill="white"/>
<path fill-rule="evenodd" clip-rule="evenodd" d="M13.8689 7.29355C13.581 7.30054 13.2983 7.33107 13.1925 7.63275C13.0336 8.08366 13.368 8.19119 13.7083 8.24479C14.8446 8.42364 15.4426 9.08053 15.5561 10.1914C15.5867 10.4929 15.7819 10.7372 16.079 10.7028C16.4906 10.6547 16.5278 10.2955 16.5152 9.95431C16.5356 8.70623 15.0968 7.26367 13.8689 7.29355Z" fill="white"/>
</svg>
