<svg width="24" height="24" viewBox="0 0 24 24" fill="none" xmlns="http://www.w3.org/2000/svg">
<rect width="24" height="24" rx="4" fill="#01B7EE"/>
<path d="M20.482 13.912C20.6099 13.3266 20.6811 12.7181 20.6811 12.095C20.6811 7.41902 16.8367 3.62969 12.0956 3.62969C11.595 3.62969 11.104 3.67236 10.6277 3.75236C9.85936 3.27751 8.95181 3 7.9782 3C5.22971 3 3 5.19791 3 7.90817C3 8.81537 3.25079 9.66226 3.6853 10.3918C3.57167 10.9412 3.51166 11.5112 3.51166 12.0943C3.51166 16.769 7.35429 20.5592 12.0957 20.5592C12.6323 20.5592 13.1578 20.5093 13.6683 20.4179C14.3684 20.7887 15.1703 21 16.0215 21C18.77 21 21 18.8022 21 16.091C21 15.3089 20.8116 14.5687 20.482 13.912ZM16.4978 16.1416C16.1012 16.6953 15.5147 17.1352 14.7537 17.4468C14.0012 17.7551 13.0978 17.9112 12.0722 17.9112C10.8392 17.9112 9.80568 17.6968 8.99847 17.2756C8.42231 16.9677 7.94644 16.5526 7.58524 16.0385C7.21995 15.5203 7.03561 15.0058 7.03561 14.5081C7.03561 14.1983 7.15775 13.9309 7.39422 13.7095C7.62925 13.4916 7.93154 13.3804 8.29016 13.3804C8.58583 13.3804 8.84001 13.4682 9.04731 13.64C9.24529 13.8063 9.41289 14.0496 9.55069 14.3653C9.70356 14.7086 9.86799 15.0002 10.0432 15.2278C10.2118 15.448 10.454 15.6312 10.7645 15.7763C11.0743 15.9223 11.4945 15.9958 12.011 15.9958C12.7217 15.9958 13.302 15.8451 13.7398 15.5511C14.1675 15.2637 14.3741 14.9181 14.3741 14.495C14.3741 14.1608 14.2678 13.898 14.0427 13.6923C13.811 13.477 13.5013 13.3093 13.126 13.1937C12.7374 13.0726 12.206 12.9441 11.5518 12.8079C10.6607 12.6213 9.90355 12.3978 9.30144 12.1448C8.68703 11.8862 8.19062 11.5289 7.82775 11.0802C7.45895 10.625 7.27311 10.0552 7.27311 9.38441C7.27311 8.74422 7.46902 8.16917 7.856 7.67043C8.23958 7.17697 8.80083 6.79256 9.5214 6.53088C10.2356 6.27016 11.0826 6.13768 12.0409 6.13768C12.8081 6.13768 13.4804 6.22534 14.0436 6.39891C14.6098 6.57338 15.0874 6.80748 15.4616 7.09668C15.8388 7.3873 16.121 7.6984 16.2963 8.02119C16.4751 8.3496 16.5636 8.67279 16.5636 8.98718C16.5636 9.28948 16.4457 9.56461 16.2115 9.80371C15.9777 10.0446 15.68 10.1689 15.3306 10.1689C15.0135 10.1689 14.7642 10.092 14.5925 9.9413C14.4306 9.80116 14.2626 9.58192 14.0784 9.26894C13.8658 8.86848 13.6068 8.55346 13.3093 8.32906C13.0205 8.1122 12.5389 8.0023 11.8767 8.0023C11.2611 8.0023 10.7611 8.12429 10.3887 8.36497C10.0305 8.5959 9.85723 8.86224 9.85723 9.1764C9.85723 9.36881 9.91195 9.53182 10.0283 9.66941C10.1494 9.81614 10.3221 9.94442 10.5397 10.0526C10.7663 10.165 10.9977 10.2531 11.2303 10.3164C11.4686 10.381 11.8696 10.4775 12.4171 10.6037C13.1121 10.7502 13.7504 10.915 14.3151 11.0928C14.8865 11.2737 15.381 11.4956 15.7831 11.7542C16.1942 12.0187 16.5206 12.3587 16.7522 12.7612C16.9821 13.1685 17.0998 13.6704 17.0998 14.2534C17.0982 14.9493 16.8965 15.5846 16.4978 16.1416Z" fill="white"/>
</svg>
