<svg width="16" height="16" viewBox="0 0 16 16" fill="none" xmlns="http://www.w3.org/2000/svg">
<path d="M0.290315 0.290314C0.6774 -0.0967714 1.30499 -0.0967714 1.69208 0.290314L15.7097 14.3079C16.0968 14.695 16.0968 15.3226 15.7097 15.7097C15.3226 16.0968 14.695 16.0968 14.3079 15.7097L0.290315 1.69208C-0.0967707 1.30499 -0.0967709 0.6774 0.290315 0.290314Z" fill="#EF4136"/>
<path d="M0.290314 15.7097C-0.0967714 15.3226 -0.0967714 14.695 0.290314 14.3079L14.3079 0.290315C14.695 -0.0967703 15.3226 -0.0967706 15.7097 0.290315C16.0968 0.677401 16.0968 1.30499 15.7097 1.69208L1.69208 15.7097C1.30499 16.0968 0.6774 16.0968 0.290314 15.7097Z" fill="#EF4136"/>
</svg>
