<?xml version="1.0" standalone="no"?>
<!DOCTYPE svg PUBLIC "-//W3C//DTD SVG 20010904//EN"
 "http://www.w3.org/TR/2001/REC-SVG-20010904/DTD/svg10.dtd">
<svg version="1.0" xmlns="http://www.w3.org/2000/svg"
 width="929.000000pt" height="929.000000pt" viewBox="0 0 929.000000 929.000000"
 preserveAspectRatio="xMidYMid meet">
<metadata>
Created by potrace 1.11, written by Peter Selinger 2001-2013
</metadata>
<g transform="translate(0.000000,929.000000) scale(0.100000,-0.100000)"
fill="#000000" stroke="none">
<path d="M4626 9273 c-3 -10 -12 -27 -19 -38 -7 -11 -32 -54 -55 -95 -23 -41
-54 -93 -67 -115 -14 -22 -29 -49 -35 -60 -10 -20 -26 -49 -135 -236 -33 -57
-62 -108 -65 -114 -3 -5 -21 -37 -40 -70 -19 -33 -42 -72 -50 -87 -21 -36
-303 -524 -315 -546 -6 -9 -23 -39 -38 -67 -15 -27 -32 -57 -37 -65 -5 -8 -48
-82 -95 -165 -47 -82 -89 -157 -95 -165 -11 -18 -166 -288 -195 -339 -26 -45
-126 -219 -142 -246 -7 -11 -15 -26 -19 -34 -4 -8 -43 -75 -86 -149 -43 -74
-78 -136 -78 -138 0 -3 -11 -23 -26 -45 -14 -22 -33 -55 -43 -72 -10 -18 -30
-52 -45 -77 -14 -25 -40 -70 -56 -100 -17 -30 -40 -71 -51 -90 -38 -63 -373
-644 -389 -675 -9 -16 -34 -61 -57 -100 -22 -38 -51 -89 -64 -111 -13 -23
-107 -186 -209 -362 -102 -177 -201 -349 -221 -384 -45 -80 -74 -130 -142
-248 -30 -52 -94 -164 -142 -248 l-87 -153 6 -187 c4 -103 9 -248 11 -322 3
-74 7 -211 10 -305 8 -275 16 -506 19 -565 3 -47 13 -72 67 -163 60 -102 78
-133 125 -217 11 -19 27 -46 35 -60 16 -25 429 -743 477 -830 14 -25 42 -74
64 -109 21 -34 38 -65 38 -67 0 -2 16 -28 35 -58 19 -30 35 -57 35 -60 0 -3
37 -69 83 -148 46 -79 116 -200 157 -271 40 -70 77 -130 82 -133 8 -5 160 -39
263 -58 11 -2 99 -20 195 -40 334 -68 465 -95 490 -100 14 -2 115 -23 225 -46
110 -23 209 -43 220 -45 11 -3 99 -20 195 -39 96 -19 189 -38 205 -41 17 -3
42 -8 56 -11 15 -3 116 13 225 36 110 22 208 42 219 44 11 2 281 57 600 121
319 65 591 119 605 122 14 2 74 14 135 26 l110 23 33 59 c57 100 74 131 218
380 76 132 148 258 160 280 12 22 78 137 146 255 69 118 136 235 149 260 14
25 37 64 52 87 15 24 27 45 27 47 0 3 14 29 31 58 18 29 43 73 57 98 14 25 86
151 160 280 75 129 141 246 148 259 7 13 13 62 14 110 1 47 3 133 5 191 2 58
6 197 10 310 6 208 9 295 20 637 l7 192 -44 78 c-23 43 -47 86 -53 95 -5 9
-57 98 -114 198 -57 99 -107 183 -112 186 -5 3 -9 14 -9 24 0 10 -3 20 -8 22
-6 3 -69 106 -121 201 -9 16 -20 36 -26 46 -5 9 -37 64 -69 121 -32 58 -69
121 -81 140 -22 35 -173 297 -217 377 -19 34 -332 577 -402 696 -10 18 -26 46
-35 62 -19 34 -177 312 -191 335 -60 99 -90 151 -90 156 0 3 -16 30 -35 60
-19 30 -35 56 -35 58 0 2 -63 113 -140 246 -77 134 -140 247 -140 252 0 4 -5
8 -10 8 -6 0 -9 3 -8 8 1 4 -5 18 -14 32 -15 24 -142 244 -196 340 -14 25 -48
86 -77 135 -45 78 -214 371 -265 460 -20 35 -223 388 -299 519 -28 49 -51 93
-51 97 0 5 -5 9 -11 9 -5 0 -8 4 -4 9 3 5 1 12 -4 15 -7 4 -147 243 -227 387
-20 35 -31 42 -38 22z"/>
</g>
</svg>
