<svg width="24" height="24" viewBox="0 0 24 24" fill="none" xmlns="http://www.w3.org/2000/svg">
<path d="M21 0H3C1.34315 0 0 1.34315 0 3V21C0 22.6569 1.34315 24 3 24H21C22.6569 24 24 22.6569 24 21V3C24 1.34315 22.6569 0 21 0Z" fill="#F9B006"/>
<path d="M9.75 6C9.33579 6 9 6.33579 9 6.75C9 7.16421 9.33579 7.5 9.75 7.5H14.25C14.6642 7.5 15 7.16421 15 6.75C15 6.33579 14.6642 6 14.25 6H9.75Z" fill="white"/>
<path fill-rule="evenodd" clip-rule="evenodd" d="M6 6C6 4.34315 7.34315 3 9 3H15C16.6569 3 18 4.34315 18 6V18C18 19.6569 16.6569 21 15 21H9C7.34315 21 6 19.6569 6 18V6ZM9 4.5H15C15.8284 4.5 16.5 5.17157 16.5 6V16.5C16.5 17.3284 15.8284 18 15 18H9C8.17157 18 7.5 17.3284 7.5 16.5V6C7.5 5.17157 8.17157 4.5 9 4.5Z" fill="white"/>
<path d="M9.75 6C9.33579 6 9 6.33579 9 6.75C9 7.16421 9.33579 7.5 9.75 7.5H14.25C14.6642 7.5 15 7.16421 15 6.75C15 6.33579 14.6642 6 14.25 6H9.75Z" fill="white"/>
<path fill-rule="evenodd" clip-rule="evenodd" d="M6 6C6 4.34315 7.34315 3 9 3H15C16.6569 3 18 4.34315 18 6V18C18 19.6569 16.6569 21 15 21H9C7.34315 21 6 19.6569 6 18V6ZM9 4.5H15C15.8284 4.5 16.5 5.17157 16.5 6V16.5C16.5 17.3284 15.8284 18 15 18H9C8.17157 18 7.5 17.3284 7.5 16.5V6C7.5 5.17157 8.17157 4.5 9 4.5Z" fill="white"/>
</svg>
