<svg width="24" height="24" viewBox="0 0 24 24" fill="none" xmlns="http://www.w3.org/2000/svg">
<path d="M21 0H3C1.34315 0 0 1.34315 0 3V21C0 22.6569 1.34315 24 3 24H21C22.6569 24 24 22.6569 24 21V3C24 1.34315 22.6569 0 21 0Z" fill="#209E48"/>
<path fill-rule="evenodd" clip-rule="evenodd" d="M3 21C3.10366 20.6082 3.18659 20.2714 3.28334 19.9347C3.5805 18.8556 3.88457 17.7765 4.16792 16.6905C4.20938 16.5325 4.18865 16.3125 4.11263 16.1682C1.34833 10.9308 4.20247 4.60067 9.99367 3.24666C15.2527 2.01636 19.9866 5.54916 20.8505 10.271C21.7488 15.1991 18.5077 19.8728 13.5942 20.7319C11.6384 21.0687 9.77253 20.7801 7.98956 19.9209C7.83061 19.8453 7.60947 19.8247 7.4367 19.8659C5.0594 20.4639 3.47684 20.9038 3 21ZM5.08704 18.9518C5.97853 18.7181 6.80091 18.5119 7.62329 18.2851C7.85134 18.2232 8.03102 18.2576 8.23834 18.3745C9.77944 19.2611 11.438 19.591 13.2072 19.3092C17.2776 18.6631 20.0695 14.8692 19.4476 10.8346C18.798 6.64886 14.8588 3.84462 10.6917 4.60754C5.65373 5.52854 2.97236 11.1164 5.48096 15.5427C5.75739 16.0307 5.83341 16.4362 5.64682 16.9586C5.41876 17.584 5.28055 18.237 5.08704 18.9518Z" fill="white"/>
<path fill-rule="evenodd" clip-rule="evenodd" d="M14.3611 16.2094C12.6058 16.1475 9.8208 14.7729 7.90653 11.4669C7.22928 10.2916 7.32603 8.95819 8.32117 8.03719C8.6598 7.7279 9.08135 7.8035 9.47526 7.86536C9.57201 7.87911 9.67567 8.03031 9.72405 8.14028C9.97974 8.71763 10.2285 9.29497 10.4497 9.87919C10.5672 10.1954 10.3529 10.484 9.89681 10.9995C9.75169 11.1645 9.72405 11.3157 9.83462 11.5081C10.5672 12.7453 11.5969 13.6457 12.9444 14.168C13.1449 14.2436 13.29 14.1955 13.4144 14.0443C14.1331 13.1783 14.2022 12.924 14.5823 13.0958C16.3929 13.9618 16.538 13.9962 16.5449 14.1955C16.614 15.7282 15.2112 16.2712 14.3611 16.2094Z" fill="white"/>
</svg>
