<svg width="24" height="24" viewBox="0 0 24 24" fill="none" xmlns="http://www.w3.org/2000/svg">
<g clip-path="url(#clip0)">
<path d="M21 0H3C1.34315 0 0 1.34315 0 3V21C0 22.6569 1.34315 24 3 24H21C22.6569 24 24 22.6569 24 21V3C24 1.34315 22.6569 0 21 0Z" fill="#64A9DC"/>
<path d="M19.7847 4.59918L3.84024 10.7095C2.75201 11.1433 2.75846 11.7463 3.64189 12.0152L7.61848 13.2484L9.14001 17.8834C9.32499 18.3907 9.2338 18.5919 9.76996 18.5919C10.1837 18.5919 10.3673 18.4044 10.5977 18.1808C10.7443 18.0383 11.6144 17.1978 12.5859 16.2592L16.7223 19.2958C17.4834 19.713 18.033 19.4968 18.2226 18.5934L20.9378 5.88044C21.2158 4.77308 20.5129 4.27079 19.7847 4.59918ZM8.24256 12.9651L17.2058 7.34649C17.6533 7.07687 18.0635 7.22183 17.7267 7.51892L10.0518 14.3991L9.75296 17.5659L8.24256 12.9651Z" fill="white"/>
</g>
<defs>
<clipPath id="clip0">
<rect width="24" height="24" fill="white"/>
</clipPath>
</defs>
</svg>
